<svg id="Lager_1" data-name="Lager 1" xmlns="http://www.w3.org/2000/svg" viewBox="0 0 591.87 118.95"><defs><style>.cls-1{fill:#222221;stroke:#222221;stroke-linejoin:round;stroke-width:6px;}</style></defs><title>logo</title><path class="cls-1" d="M105.33,73.88a1.44,1.44,0,0,1,.73.73,1.28,1.28,0,0,1,0,1,1.24,1.24,0,0,1-.78.74,59.45,59.45,0,0,0-10.43,5.31q-6,3.66-9.94,6.54T73.7,96.63q-12.47,9.53-18,12.82-16.29,10.15-30.3,11.08c-.86.06-1.68.09-2.48.09q-11.71,0-16.29-7.14-2.85-4.4-1.84-10.62A36.11,36.11,0,0,1,10.52,89.4Q21.41,72.82,48.79,54.7l1.93-1.29q10.61-7,13.73-9.15-4.66,1.18-7.88,1.83-14.64,2.83-21.92,2.75c-4.86-.06-7.74-1.1-8.66-3.12-.73-1.58-.29-3.54,1.33-5.86s4.56-5.18,8.84-8.6a127,127,0,0,1,16-10.62,116.38,116.38,0,0,1,19.05-8.75q9.75-3.44,15.15-2.51a7.38,7.38,0,0,1,5.22,3.2,1.22,1.22,0,0,1-.5,1.83A1.1,1.1,0,0,1,89.26,14,5.08,5.08,0,0,0,85.87,12q-7.23-1.28-22.89,6A127,127,0,0,0,37.81,33.36,55.93,55.93,0,0,0,31,39.68a14.7,14.7,0,0,0-2.56,3.53,2.32,2.32,0,0,0-.1,1.42,3.54,3.54,0,0,0,.87.73,7.69,7.69,0,0,0,2.48.64,27.39,27.39,0,0,0,4.67.18q2.79-.09,7.92-.78t11.72-2q3.28-.63,8.42-2l2.7-.64a13.53,13.53,0,0,1,1.65-.27,1.89,1.89,0,0,1,1.19.13,2.12,2.12,0,0,1,.59.78,1.68,1.68,0,0,1-.45,1.83,26.82,26.82,0,0,1-3.85,3q-2.84,2-14.1,9.43L50.26,57a196.51,196.51,0,0,0-16.39,11.9A123.33,123.33,0,0,0,21.65,80.06a88.49,88.49,0,0,0-8.24,10A38,38,0,0,0,8.64,99a20.91,20.91,0,0,0-1.32,7.33A11.1,11.1,0,0,0,9,112a11.32,11.32,0,0,0,6.13,4.62,26.42,26.42,0,0,0,10,1.29,46.76,46.76,0,0,0,13.46-3,84,84,0,0,0,15.84-7.78q5.31-3.3,17.67-12.64,7.32-5.58,11.4-8.56t10.16-6.68a64.81,64.81,0,0,1,10.76-5.45A1.2,1.2,0,0,1,105.33,73.88Z" transform="translate(-1.58 -6.04)"/><path class="cls-1" d="M185.17,74.15a1.27,1.27,0,0,1,.68.74,1.3,1.3,0,0,1-.82,1.69q-7.51,2.74-24.26,12.18Q149,95.43,144.19,97.55c-2.92,1.22-4.85,1.25-5.76.09q-1.2-1.38,0-4a85,85,0,0,1,5-8.79q2.29-3.48,3.21-5.22c2-3.42,2.9-5.71,2.65-6.87a5.38,5.38,0,0,0-2.38,1.1q-6.41,4-19.68,15.66c-4.83,4.21-8,6.84-9.57,7.87s-2.76,1.25-3.62.64a2.89,2.89,0,0,1-.5-2.51,21.25,21.25,0,0,1,1.88-4.44q6.49-12.47,5.86-14.84a5.66,5.66,0,0,0-2.8,1.06,60,60,0,0,0-5.35,3.66q-3.39,2.52-5.68,4.35c-1.53,1.22-3.69,2.93-6.5,5.12l-2.11,1.74q-9.51,7.6-12.45,7.6A2.09,2.09,0,0,1,84.77,99q-1.83-2.28,5.13-11.17a76.81,76.81,0,0,1,12.64-13.18,1.17,1.17,0,0,1,1.87.23,1.14,1.14,0,0,1-.23,1.87,83.49,83.49,0,0,0-11.53,11.9q-4.31,5.41-5.4,8.15,2.84-1.19,9.88-6.77l2.2-1.74q12.36-9.89,17.08-12.82t6.64-1.37a3.46,3.46,0,0,1,1,2.47,15.72,15.72,0,0,1-1.42,5.54,107.63,107.63,0,0,1-4.8,10.21c-.49,1-.89,1.8-1.19,2.47q2-1.38,8.88-7.33,13.37-11.81,20-15.93,3.93-2.57,5.76-.82,2.38,2.39-2.19,10.25-1,1.74-3.3,5.31-5,8-5.22,9.53a10.6,10.6,0,0,0,2.57-.74q4.76-2.1,16.38-8.69,16.86-9.52,24.63-12.27A1.39,1.39,0,0,1,185.17,74.15Z" transform="translate(-1.58 -6.04)"/><path class="cls-1" d="M266.47,74.15a1.32,1.32,0,0,1,.69.74,1.29,1.29,0,0,1-.05,1,1.22,1.22,0,0,1-.78.69q-7.5,2.74-24.26,12.18-11.73,6.67-16.57,8.79c-2.93,1.22-4.86,1.25-5.77.09q-1.2-1.38,0-4a85,85,0,0,1,5-8.79q2.3-3.48,3.21-5.22c2-3.42,2.9-5.71,2.65-6.87a5.38,5.38,0,0,0-2.38,1.1q-6.41,4-19.68,15.66A122.82,122.82,0,0,1,199,97.36c-1.56,1-2.76,1.25-3.62.64a2.92,2.92,0,0,1-.5-2.51,21.25,21.25,0,0,1,1.88-4.44q6.5-12.47,5.86-14.84a5.66,5.66,0,0,0-2.8,1.06,61.44,61.44,0,0,0-5.35,3.66q-3.39,2.52-5.68,4.35t-6.5,5.12l-2.1,1.74q-9.52,7.6-12.46,7.6a2.06,2.06,0,0,1-1.64-.73q-1.83-2.28,5.12-11.17a77.19,77.19,0,0,1,12.64-13.18,1.18,1.18,0,0,1,1.88.23,1.15,1.15,0,0,1-.23,1.87A83,83,0,0,0,174,88.66q-4.3,5.41-5.4,8.15,2.83-1.19,9.89-6.77l2.19-1.74Q193,78.41,197.71,75.48t6.64-1.37a3.42,3.42,0,0,1,1,2.47,15.72,15.72,0,0,1-1.42,5.54,105.17,105.17,0,0,1-4.8,10.21c-.49,1-.89,1.8-1.19,2.47q2-1.38,8.88-7.33,13.37-11.81,20-15.93,3.93-2.57,5.77-.82,2.37,2.39-2.2,10.25-1,1.74-3.3,5.31c-3.36,5.31-5.09,8.49-5.22,9.53a10.6,10.6,0,0,0,2.57-.74q4.75-2.1,16.39-8.69,16.85-9.52,24.63-12.27A1.36,1.36,0,0,1,266.47,74.15Z" transform="translate(-1.58 -6.04)"/><path class="cls-1" d="M321,74.43a1.23,1.23,0,0,1,.68.78,1.41,1.41,0,0,1,0,1.05,1.29,1.29,0,0,1-.78.68q-11.08,3.94-33.7,17-6.49,3.68-9.38,5.13a10.89,10.89,0,0,1-4.35,1.47,2.16,2.16,0,0,1-1.56-.64q-1.19-1.2,0-4.08a110,110,0,0,1,6.36-11.21c.31-.55.58-1,.83-1.47q-3,1.29-11.08,7.33l-.64.55q-12.63,9.33-16,5.31-1.93-2.3,1.19-7.65T263.22,76a21,21,0,0,1,7.14-4.81,9,9,0,0,1,6.32-.32q4.49,1.65,5.21,7.88a1.19,1.19,0,0,1-1.09,1.46,2.18,2.18,0,0,1,.73.46c1,.91.73,2.72-.92,5.4q-5.76,9.53-6.5,11.63,2.2-.65,11.81-6.14Q308.72,78.51,320,74.38A1.44,1.44,0,0,1,321,74.43Zm-54.53,14q10.62-8.06,13.46-8.24a1.06,1.06,0,0,1-.73-1.1q-.56-4.58-3.48-5.68a7,7,0,0,0-1.65-.18c-2.68,0-5.71,1.62-9.06,4.85a71.17,71.17,0,0,0-7.83,8.66,27,27,0,0,0-3.53,5.67q-.63,1.78-.27,2.25a1,1,0,0,0,.6.22,4.17,4.17,0,0,0,1.41-.22,19.9,19.9,0,0,0,2.34-.83A27.14,27.14,0,0,0,261.25,92q2.14-1.27,4.62-3.11Z" transform="translate(-1.58 -6.04)"/><path class="cls-1" d="M365.35,75.16a1.23,1.23,0,0,1-.78,1.78Q355.42,80.62,343,87t-22.52,12.5a27.36,27.36,0,0,1-2.79,6.5,31,31,0,0,1-4.17,5.63,47.77,47.77,0,0,1-4.85,4.49,41,41,0,0,1-4.81,3.38,22.92,22.92,0,0,1-4.07,2A9,9,0,0,1,297,122a2.5,2.5,0,0,1-2.47-1.28q-2-3.39,10-13.64A112.48,112.48,0,0,1,318,97.73a19,19,0,0,0,.27-6.14q-1.55-10.71-.55-15.56a1.26,1.26,0,0,1,.37-1.28,12.34,12.34,0,0,1,1.74-3.85,18.37,18.37,0,0,1,7.14-6.45c2.93-1.5,5.34-2.06,7.23-1.7a2.56,2.56,0,0,1,2.29,1.93q.56,2.66-5.22,6.68a55.22,55.22,0,0,1-10.89,5.22q-.92,4.4.55,14.65A18.07,18.07,0,0,1,321,96q10.15-6,22-12t20.6-9.57A1.26,1.26,0,0,1,365.35,75.16ZM306.71,114.3c1-.79,2-1.66,3-2.61a35.2,35.2,0,0,0,3.66-4.26,28.46,28.46,0,0,0,3.44-5.76,89.67,89.67,0,0,0-10.53,7.5q-8.43,7.14-9.25,10.07a11.22,11.22,0,0,0,3.8-1.23A31.5,31.5,0,0,0,306.71,114.3Zm15.38-41.93a9.72,9.72,0,0,0-.55.82,43.4,43.4,0,0,0,8.15-4c2.26-1.58,3.6-2.84,4-3.75a1.34,1.34,0,0,0-.55-.09,12.47,12.47,0,0,0-5.5,1.83A15.14,15.14,0,0,0,322.09,72.37Z" transform="translate(-1.58 -6.04)"/><path class="cls-1" d="M473.16,74s.16.41.5,1.23a1.13,1.13,0,0,1-.69,1.69q-5.67,2.3-11.72,5.36t-9.38,5q-3.35,2-8.84,5.26-6.22,3.75-8.79,5.13-7.32,3.93-13.18-.55a14.6,14.6,0,0,1-2.75-2.75,18.81,18.81,0,0,1-2.1-3.38,22.55,22.55,0,0,1-1.33-3.48,15.38,15.38,0,0,1-.6-3.3,150.93,150.93,0,0,0-17.12,16q-2.75,3.21-4.12,3.21a1.48,1.48,0,0,1-.91-.37,1.8,1.8,0,0,1-.73-.82,6.22,6.22,0,0,1,.41-2.66,35.74,35.74,0,0,1,2.42-6l.1-.09c.61-1.1,1.7-3,3.29-5.77q4.39-7.78,7.28-12.73t7.92-13.27q5-8.34,10.35-16.16t10.71-15q2.92-3.86,5.81-7.28t6.37-7.1a35.58,35.58,0,0,1,6.59-5.63q3.11-2,5.12-1.6a2.81,2.81,0,0,1,2.2,2.38c.37,1.41.12,3.31-.73,5.72a53.11,53.11,0,0,1-4.07,8.47,96.52,96.52,0,0,1-6.92,10.26Q432.79,56.8,407.14,76.76a.26.26,0,0,0-.18.09q-2.56,4.4-7,12.27c-1.47,2.63-2.53,4.55-3.2,5.77A33.6,33.6,0,0,0,395,98.74c.06-.13.12-.19.18-.19a151.5,151.5,0,0,1,19.78-18.22,2.65,2.65,0,0,1,1.37-1.1,159,159,0,0,1,14-9.79q12.07-7.43,15.84-5a3.19,3.19,0,0,1,1.37,3.3q-.36,3-3.8,6.5a20.31,20.31,0,0,1-7.92,5q-5.22,1.74-15,2.29c-1.71.06-2.81.13-3.3.19a3.07,3.07,0,0,0-.46.36,17.61,17.61,0,0,0,0,2.38,12.19,12.19,0,0,0,.91,3.76,18.84,18.84,0,0,0,2.24,4.21q5.22,7,12.82,2.93c1.65-.86,4.52-2.53,8.61-5q5.58-3.39,9-5.35t9.52-5.09q6.13-3.11,11.91-5.4ZM436,32.36a433.37,433.37,0,0,0-25.17,38,240.94,240.94,0,0,0,18.31-16.52,185.12,185.12,0,0,0,13.55-15,136.37,136.37,0,0,0,8.79-12.32,57.88,57.88,0,0,0,4.94-9.29c.92-2.38,1.25-4.09,1-5.13-.06-.24-.13-.36-.18-.36H457a4,4,0,0,0-1.6.45,18.41,18.41,0,0,0-2.79,1.88,48.57,48.57,0,0,0-4.08,3.62q-2.24,2.19-5.54,6T436,32.36Zm-4.3,39.37a121.53,121.53,0,0,0-10.25,7q8.69-.47,13.45-2.11A17.68,17.68,0,0,0,439.83,74a17.32,17.32,0,0,0,3.57-3.53,7.41,7.41,0,0,0,1.46-3.07c.07-.36,0-.61-.18-.73a1.46,1.46,0,0,0-.91-.18Q440.2,66.51,431.68,71.73Z" transform="translate(-1.58 -6.04)"/><path class="cls-1" d="M522.37,75.57a1.22,1.22,0,0,1-.69,1.83,62,62,0,0,1-30.85,6.14c-1.35-.06-2.66-.15-3.94-.28A19.8,19.8,0,0,1,482.17,90a43.76,43.76,0,0,1-7.73,6q-6.78,4-11.26,4a5.19,5.19,0,0,1-3.3-1q-2.47-1.92-.82-6.68,2.56-7.42,11.9-16.94a2.54,2.54,0,0,1,.55-1.56,5.48,5.48,0,0,1,3.66-2,11.7,11.7,0,0,1,4.94,0,10.44,10.44,0,0,1,4.95,2.38,7.46,7.46,0,0,1,2.38,4.3,7.36,7.36,0,0,1,.09,2q1.65.18,3.39.27a59.52,59.52,0,0,0,29.57-5.95A1.29,1.29,0,0,1,522.37,75.57Zm-49.31,18a34.92,34.92,0,0,0,6.78-5.13,20.44,20.44,0,0,0,4.3-5.58q-8.61-1.47-11.9-5-8.42,8.79-10.62,15.2c-.67,2-.67,3.27,0,3.75.43.61,1.75.63,4,0A28.94,28.94,0,0,0,473.06,93.61Zm11.82-13.37a2.18,2.18,0,0,0-.1-1.1,5.33,5.33,0,0,0-1.1-2.38,4.74,4.74,0,0,0-1.92-1.46,11.63,11.63,0,0,0-1.88-.64,12.07,12.07,0,0,0-1.51-.28,6.69,6.69,0,0,0-4.39.73,3.12,3.12,0,0,1,.09.74Q476.55,78.87,484.88,80.24Zm-2.2-19.5c-.43,0-.69-.15-.78-.46a1.41,1.41,0,0,1,.23-1.1,3,3,0,0,1,2.47-1.37.8.8,0,0,1,.82.41c.13.28,0,.6-.27,1A2.92,2.92,0,0,1,482.68,60.74Zm8.24,0a.7.7,0,0,1-.73-.46,1.13,1.13,0,0,1,.27-1.1,2.84,2.84,0,0,1,2.47-1.37c.43,0,.69.14.78.41a1.12,1.12,0,0,1-.23,1A3,3,0,0,1,490.92,60.74Z" transform="translate(-1.58 -6.04)"/><path class="cls-1" d="M589.8,74s.16.41.5,1.23a1.12,1.12,0,0,1-.69,1.69q-5.67,2.3-11.71,5.36t-9.39,5q-3.35,2-8.83,5.26-6.24,3.75-8.79,5.13-7.33,3.93-13.19-.55A14.6,14.6,0,0,1,535,94.43a18.81,18.81,0,0,1-2.1-3.38,23.62,23.62,0,0,1-1.33-3.48,15.34,15.34,0,0,1-.59-3.3,149.24,149.24,0,0,0-17.12,16c-1.84,2.14-3.21,3.21-4.13,3.21a1.5,1.5,0,0,1-.91-.37,1.8,1.8,0,0,1-.73-.82,6.4,6.4,0,0,1,.41-2.66,36.87,36.87,0,0,1,2.43-6l.09-.09q.91-1.65,3.29-5.77,4.4-7.78,7.28-12.73t7.92-13.27q5-8.34,10.35-16.16t10.71-15q2.93-3.86,5.81-7.28t6.37-7.1a35.91,35.91,0,0,1,6.59-5.63q3.11-2,5.13-1.6a2.81,2.81,0,0,1,2.19,2.38c.37,1.41.12,3.31-.73,5.72a52.26,52.26,0,0,1-4.07,8.47,96.52,96.52,0,0,1-6.92,10.26Q549.43,56.8,523.78,76.76a.26.26,0,0,0-.18.09q-2.57,4.4-7.05,12.27-2.19,3.94-3.2,5.77a35.41,35.41,0,0,0-1.74,3.85c.06-.13.12-.19.18-.19a151.5,151.5,0,0,1,19.78-18.22,2.65,2.65,0,0,1,1.37-1.1,159,159,0,0,1,14-9.79Q559,62,562.79,64.4a3.17,3.17,0,0,1,1.37,3.3q-.36,3-3.8,6.5a20.31,20.31,0,0,1-7.92,5q-5.22,1.74-15,2.29c-1.71.06-2.81.13-3.3.19a3.07,3.07,0,0,0-.46.36,19.43,19.43,0,0,0,0,2.38,12.19,12.19,0,0,0,.91,3.76,18.47,18.47,0,0,0,2.25,4.21q5.22,7,12.81,2.93c1.65-.86,4.52-2.53,8.61-5q5.58-3.39,9-5.35t9.52-5.09q6.13-3.11,11.91-5.4ZM552.63,32.36a431,431,0,0,0-25.18,38,240.94,240.94,0,0,0,18.31-16.52,185.12,185.12,0,0,0,13.55-15,136.37,136.37,0,0,0,8.79-12.32A57.88,57.88,0,0,0,573,17.25c.92-2.38,1.25-4.09,1-5.13q-.09-.36-.18-.36h-.19a4,4,0,0,0-1.6.45,18.41,18.41,0,0,0-2.79,1.88,48.57,48.57,0,0,0-4.08,3.62c-1.49,1.46-3.34,3.46-5.53,6S555.13,29.12,552.63,32.36Zm-4.31,39.37a123.16,123.16,0,0,0-10.25,7,51.43,51.43,0,0,0,13.46-2.11A17.63,17.63,0,0,0,556.47,74,16.84,16.84,0,0,0,560,70.49a7.45,7.45,0,0,0,1.47-3.07c.06-.36,0-.61-.19-.73a1.44,1.44,0,0,0-.91-.18Q556.84,66.51,548.32,71.73Z" transform="translate(-1.58 -6.04)"/></svg>